<mxfile host="app.diagrams.net" agent="Mozilla/5.0 (Windows NT 10.0; Win64; x64) AppleWebKit/537.36 (KHTML, like Gecko) Chrome/128.0.0.0 Safari/537.36" version="24.7.14">
  <diagram id="C5RBs43oDa-KdzZeNtuy" name="Page-1">
    <mxGraphModel dx="1702" dy="1106" grid="0" gridSize="10" guides="1" tooltips="1" connect="1" arrows="1" fold="1" page="0" pageScale="1" pageWidth="827" pageHeight="1169" background="none" math="0" shadow="0">
      <root>
        <mxCell id="WIyWlLk6GJQsqaUBKTNV-0" />
        <mxCell id="WIyWlLk6GJQsqaUBKTNV-1" parent="WIyWlLk6GJQsqaUBKTNV-0" />
        <mxCell id="WIvtLKS5KJyySkYE0_6_-4" value="Usuario" style="swimlane;fontStyle=1;align=center;verticalAlign=top;childLayout=stackLayout;horizontal=1;startSize=26;horizontalStack=0;resizeParent=1;resizeParentMax=0;resizeLast=0;collapsible=1;marginBottom=0;whiteSpace=wrap;html=1;fillColor=#fff2cc;strokeColor=#d6b656;" vertex="1" parent="WIyWlLk6GJQsqaUBKTNV-1">
          <mxGeometry x="333" y="279" width="160" height="261" as="geometry" />
        </mxCell>
        <mxCell id="WIvtLKS5KJyySkYE0_6_-5" value="- id: number&lt;div&gt;- nome: String&lt;/div&gt;&lt;div&gt;- fotoPerfil: String&lt;/div&gt;&lt;div&gt;- email: String&lt;/div&gt;&lt;div&gt;- senha: String&lt;/div&gt;&lt;div&gt;- receitasPostadas: String&lt;/div&gt;&lt;div&gt;- preferencias: String&lt;/div&gt;&lt;div&gt;- receitasSalvas: String&lt;/div&gt;" style="text;strokeColor=none;fillColor=none;align=left;verticalAlign=top;spacingLeft=4;spacingRight=4;overflow=hidden;rotatable=0;points=[[0,0.5],[1,0.5]];portConstraint=eastwest;whiteSpace=wrap;html=1;" vertex="1" parent="WIvtLKS5KJyySkYE0_6_-4">
          <mxGeometry y="26" width="160" height="125" as="geometry" />
        </mxCell>
        <mxCell id="WIvtLKS5KJyySkYE0_6_-6" value="" style="line;strokeWidth=1;fillColor=none;align=left;verticalAlign=middle;spacingTop=-1;spacingLeft=3;spacingRight=3;rotatable=0;labelPosition=right;points=[];portConstraint=eastwest;strokeColor=inherit;" vertex="1" parent="WIvtLKS5KJyySkYE0_6_-4">
          <mxGeometry y="151" width="160" height="8" as="geometry" />
        </mxCell>
        <mxCell id="WIvtLKS5KJyySkYE0_6_-7" value="+ postarReceita()&lt;div&gt;+ editarPerfil()&lt;/div&gt;&lt;div&gt;+ definirPreferencias()&lt;/div&gt;&lt;div&gt;+ login()&lt;/div&gt;&lt;div&gt;+ logout()&lt;/div&gt;&lt;div&gt;+ verReceitasSalvas()&lt;/div&gt;" style="text;strokeColor=none;fillColor=none;align=left;verticalAlign=top;spacingLeft=4;spacingRight=4;overflow=hidden;rotatable=0;points=[[0,0.5],[1,0.5]];portConstraint=eastwest;whiteSpace=wrap;html=1;" vertex="1" parent="WIvtLKS5KJyySkYE0_6_-4">
          <mxGeometry y="159" width="160" height="102" as="geometry" />
        </mxCell>
        <mxCell id="WIvtLKS5KJyySkYE0_6_-8" value="FiltroPesquisa" style="swimlane;fontStyle=1;align=center;verticalAlign=top;childLayout=stackLayout;horizontal=1;startSize=26;horizontalStack=0;resizeParent=1;resizeParentMax=0;resizeLast=0;collapsible=1;marginBottom=0;whiteSpace=wrap;html=1;fillColor=#fff2cc;strokeColor=#d6b656;" vertex="1" parent="WIyWlLk6GJQsqaUBKTNV-1">
          <mxGeometry x="-11" y="291" width="199" height="163" as="geometry">
            <mxRectangle x="467" y="72" width="111" height="26" as="alternateBounds" />
          </mxGeometry>
        </mxCell>
        <mxCell id="WIvtLKS5KJyySkYE0_6_-9" value="- nomeReceita: String&lt;div&gt;- categorias: String&lt;/div&gt;&lt;div&gt;- ingredientesDisponiveis: String&lt;/div&gt;" style="text;strokeColor=none;fillColor=none;align=left;verticalAlign=top;spacingLeft=4;spacingRight=4;overflow=hidden;rotatable=0;points=[[0,0.5],[1,0.5]];portConstraint=eastwest;whiteSpace=wrap;html=1;" vertex="1" parent="WIvtLKS5KJyySkYE0_6_-8">
          <mxGeometry y="26" width="199" height="55" as="geometry" />
        </mxCell>
        <mxCell id="WIvtLKS5KJyySkYE0_6_-10" value="" style="line;strokeWidth=1;fillColor=none;align=left;verticalAlign=middle;spacingTop=-1;spacingLeft=3;spacingRight=3;rotatable=0;labelPosition=right;points=[];portConstraint=eastwest;strokeColor=inherit;" vertex="1" parent="WIvtLKS5KJyySkYE0_6_-8">
          <mxGeometry y="81" width="199" height="8" as="geometry" />
        </mxCell>
        <mxCell id="WIvtLKS5KJyySkYE0_6_-11" value="+ buscarPorNome()&lt;div&gt;+ buscarPorCategoria()&lt;/div&gt;&lt;div&gt;+ buscarPorIngredientes()&lt;/div&gt;&lt;div&gt;+ executarBusca()&lt;/div&gt;" style="text;strokeColor=none;fillColor=none;align=left;verticalAlign=top;spacingLeft=4;spacingRight=4;overflow=hidden;rotatable=0;points=[[0,0.5],[1,0.5]];portConstraint=eastwest;whiteSpace=wrap;html=1;" vertex="1" parent="WIvtLKS5KJyySkYE0_6_-8">
          <mxGeometry y="89" width="199" height="74" as="geometry" />
        </mxCell>
        <mxCell id="WIvtLKS5KJyySkYE0_6_-12" value="ReceitaFeed" style="swimlane;fontStyle=1;align=center;verticalAlign=top;childLayout=stackLayout;horizontal=1;startSize=26;horizontalStack=0;resizeParent=1;resizeParentMax=0;resizeLast=0;collapsible=1;marginBottom=0;whiteSpace=wrap;html=1;fillColor=#fff2cc;strokeColor=#d6b656;" vertex="1" parent="WIyWlLk6GJQsqaUBKTNV-1">
          <mxGeometry x="-11" y="-28" width="187" height="181" as="geometry" />
        </mxCell>
        <mxCell id="WIvtLKS5KJyySkYE0_6_-13" value="- fotoUsuario: String&lt;div&gt;- nomeUsuario: String&lt;/div&gt;&lt;div&gt;- fotoPrincipal: String&lt;/div&gt;&lt;div&gt;- numeroLikes: number&lt;/div&gt;&lt;div&gt;- numeroComentarios: number&lt;/div&gt;" style="text;strokeColor=none;fillColor=none;align=left;verticalAlign=top;spacingLeft=4;spacingRight=4;overflow=hidden;rotatable=0;points=[[0,0.5],[1,0.5]];portConstraint=eastwest;whiteSpace=wrap;html=1;" vertex="1" parent="WIvtLKS5KJyySkYE0_6_-12">
          <mxGeometry y="26" width="187" height="86" as="geometry" />
        </mxCell>
        <mxCell id="WIvtLKS5KJyySkYE0_6_-14" value="" style="line;strokeWidth=1;fillColor=none;align=left;verticalAlign=middle;spacingTop=-1;spacingLeft=3;spacingRight=3;rotatable=0;labelPosition=right;points=[];portConstraint=eastwest;strokeColor=inherit;" vertex="1" parent="WIvtLKS5KJyySkYE0_6_-12">
          <mxGeometry y="112" width="187" height="8" as="geometry" />
        </mxCell>
        <mxCell id="WIvtLKS5KJyySkYE0_6_-15" value="+ adicionarLike()&lt;div&gt;+ visualizarComentarios()&lt;/div&gt;&lt;div&gt;+ salvarReceita()&lt;/div&gt;" style="text;strokeColor=none;fillColor=none;align=left;verticalAlign=top;spacingLeft=4;spacingRight=4;overflow=hidden;rotatable=0;points=[[0,0.5],[1,0.5]];portConstraint=eastwest;whiteSpace=wrap;html=1;" vertex="1" parent="WIvtLKS5KJyySkYE0_6_-12">
          <mxGeometry y="120" width="187" height="61" as="geometry" />
        </mxCell>
        <mxCell id="WIvtLKS5KJyySkYE0_6_-16" value="Comentario" style="swimlane;fontStyle=1;align=center;verticalAlign=top;childLayout=stackLayout;horizontal=1;startSize=26;horizontalStack=0;resizeParent=1;resizeParentMax=0;resizeLast=0;collapsible=1;marginBottom=0;whiteSpace=wrap;html=1;fillColor=#fff2cc;strokeColor=#d6b656;" vertex="1" parent="WIyWlLk6GJQsqaUBKTNV-1">
          <mxGeometry x="647" y="51" width="208" height="331" as="geometry" />
        </mxCell>
        <mxCell id="WIvtLKS5KJyySkYE0_6_-36" value="- fotoUsuario: String&lt;div&gt;- nomeUsuario: String&lt;/div&gt;&lt;div&gt;- textoComentario: String&lt;/div&gt;&lt;div&gt;- tempoAdicionado: String&lt;/div&gt;&lt;div&gt;- numeroCurtidas: number&lt;/div&gt;&lt;div&gt;- respostas: String&lt;/div&gt;" style="text;strokeColor=none;fillColor=none;align=left;verticalAlign=top;spacingLeft=4;spacingRight=4;overflow=hidden;rotatable=0;points=[[0,0.5],[1,0.5]];portConstraint=eastwest;whiteSpace=wrap;html=1;" vertex="1" parent="WIvtLKS5KJyySkYE0_6_-16">
          <mxGeometry y="26" width="208" height="103" as="geometry" />
        </mxCell>
        <mxCell id="WIvtLKS5KJyySkYE0_6_-17" value="- fotoUsuario: String&lt;div&gt;- nomeUsuario: String&lt;/div&gt;&lt;div&gt;- textoComentario: String&lt;/div&gt;&lt;div&gt;- tempoAdicionado: String&lt;/div&gt;&lt;div&gt;- numeroCurtidas: number&lt;/div&gt;&lt;div&gt;- respostas: String&lt;/div&gt;" style="text;strokeColor=none;fillColor=none;align=left;verticalAlign=top;spacingLeft=4;spacingRight=4;overflow=hidden;rotatable=0;points=[[0,0.5],[1,0.5]];portConstraint=eastwest;whiteSpace=wrap;html=1;" vertex="1" parent="WIvtLKS5KJyySkYE0_6_-16">
          <mxGeometry y="129" width="208" height="103" as="geometry" />
        </mxCell>
        <mxCell id="WIvtLKS5KJyySkYE0_6_-18" value="" style="line;strokeWidth=1;fillColor=none;align=left;verticalAlign=middle;spacingTop=-1;spacingLeft=3;spacingRight=3;rotatable=0;labelPosition=right;points=[];portConstraint=eastwest;strokeColor=inherit;" vertex="1" parent="WIvtLKS5KJyySkYE0_6_-16">
          <mxGeometry y="232" width="208" height="8" as="geometry" />
        </mxCell>
        <mxCell id="WIvtLKS5KJyySkYE0_6_-19" value="+ adicionarCurtida()&lt;div&gt;+ responderComentario(resposta)&lt;/div&gt;&lt;div&gt;+ verMaisRespostas()&lt;/div&gt;&lt;div&gt;+ escreverComentario(comentario)&lt;/div&gt;&lt;div&gt;+ exibirComentario()&lt;/div&gt;" style="text;strokeColor=none;fillColor=none;align=left;verticalAlign=top;spacingLeft=4;spacingRight=4;overflow=hidden;rotatable=0;points=[[0,0.5],[1,0.5]];portConstraint=eastwest;whiteSpace=wrap;html=1;" vertex="1" parent="WIvtLKS5KJyySkYE0_6_-16">
          <mxGeometry y="240" width="208" height="91" as="geometry" />
        </mxCell>
        <mxCell id="WIvtLKS5KJyySkYE0_6_-0" value="Receita" style="swimlane;fontStyle=1;align=center;verticalAlign=top;childLayout=stackLayout;horizontal=1;startSize=26;horizontalStack=0;resizeParent=1;resizeParentMax=0;resizeLast=0;collapsible=1;marginBottom=0;whiteSpace=wrap;html=1;fillColor=#fff2cc;strokeColor=#d6b656;" vertex="1" parent="WIyWlLk6GJQsqaUBKTNV-1">
          <mxGeometry x="319.5" y="-85" width="187" height="282" as="geometry" />
        </mxCell>
        <mxCell id="WIvtLKS5KJyySkYE0_6_-1" value="- id: number&lt;div&gt;- nome: String&lt;/div&gt;&lt;div&gt;- ingredientes: String&lt;/div&gt;&lt;div&gt;- modoPreparo: String&lt;/div&gt;&lt;div&gt;- fotos: String&lt;/div&gt;&lt;div&gt;- likes: number&lt;/div&gt;&lt;div&gt;- usuarioPostador: String&lt;/div&gt;" style="text;strokeColor=none;fillColor=none;align=left;verticalAlign=top;spacingLeft=4;spacingRight=4;overflow=hidden;rotatable=0;points=[[0,0.5],[1,0.5]];portConstraint=eastwest;whiteSpace=wrap;html=1;" vertex="1" parent="WIvtLKS5KJyySkYE0_6_-0">
          <mxGeometry y="26" width="187" height="114" as="geometry" />
        </mxCell>
        <mxCell id="WIvtLKS5KJyySkYE0_6_-2" value="" style="line;strokeWidth=1;fillColor=none;align=left;verticalAlign=middle;spacingTop=-1;spacingLeft=3;spacingRight=3;rotatable=0;labelPosition=right;points=[];portConstraint=eastwest;strokeColor=inherit;" vertex="1" parent="WIvtLKS5KJyySkYE0_6_-0">
          <mxGeometry y="140" width="187" height="8" as="geometry" />
        </mxCell>
        <mxCell id="WIvtLKS5KJyySkYE0_6_-3" value="+ adicionarComentario()&lt;div&gt;+ adicionarLike()&lt;/div&gt;&lt;div&gt;+ salvarReceita()&lt;/div&gt;&lt;div&gt;+ compartilhar()&lt;/div&gt;&lt;div&gt;+ editarReceita()&lt;/div&gt;&lt;div&gt;+ excluirReceita()&lt;/div&gt;&lt;div&gt;+ adicionarTag()&lt;/div&gt;&lt;div&gt;+ visualizarReceita()&lt;/div&gt;" style="text;strokeColor=none;fillColor=none;align=left;verticalAlign=top;spacingLeft=4;spacingRight=4;overflow=hidden;rotatable=0;points=[[0,0.5],[1,0.5]];portConstraint=eastwest;whiteSpace=wrap;html=1;" vertex="1" parent="WIvtLKS5KJyySkYE0_6_-0">
          <mxGeometry y="148" width="187" height="134" as="geometry" />
        </mxCell>
        <mxCell id="WIvtLKS5KJyySkYE0_6_-34" style="edgeStyle=orthogonalEdgeStyle;rounded=0;orthogonalLoop=1;jettySize=auto;html=1;exitX=0;exitY=0.5;exitDx=0;exitDy=0;entryX=0.5;entryY=0;entryDx=0;entryDy=0;" edge="1" parent="WIyWlLk6GJQsqaUBKTNV-1" source="WIvtLKS5KJyySkYE0_6_-3" target="WIvtLKS5KJyySkYE0_6_-4">
          <mxGeometry relative="1" as="geometry">
            <Array as="points">
              <mxPoint x="283" y="130" />
              <mxPoint x="283" y="238" />
              <mxPoint x="413" y="238" />
            </Array>
          </mxGeometry>
        </mxCell>
        <mxCell id="WIvtLKS5KJyySkYE0_6_-38" style="edgeStyle=orthogonalEdgeStyle;rounded=0;orthogonalLoop=1;jettySize=auto;html=1;exitX=1;exitY=0.5;exitDx=0;exitDy=0;entryX=0.5;entryY=0;entryDx=0;entryDy=0;" edge="1" parent="WIyWlLk6GJQsqaUBKTNV-1" source="WIvtLKS5KJyySkYE0_6_-1" target="WIvtLKS5KJyySkYE0_6_-16">
          <mxGeometry relative="1" as="geometry" />
        </mxCell>
        <mxCell id="WIvtLKS5KJyySkYE0_6_-41" style="edgeStyle=orthogonalEdgeStyle;rounded=0;orthogonalLoop=1;jettySize=auto;html=1;exitX=1;exitY=0.5;exitDx=0;exitDy=0;" edge="1" parent="WIyWlLk6GJQsqaUBKTNV-1" source="WIvtLKS5KJyySkYE0_6_-5" target="WIvtLKS5KJyySkYE0_6_-17">
          <mxGeometry relative="1" as="geometry" />
        </mxCell>
        <mxCell id="WIvtLKS5KJyySkYE0_6_-42" style="edgeStyle=orthogonalEdgeStyle;rounded=0;orthogonalLoop=1;jettySize=auto;html=1;exitX=0.5;exitY=0;exitDx=0;exitDy=0;entryX=0.529;entryY=1.016;entryDx=0;entryDy=0;entryPerimeter=0;" edge="1" parent="WIyWlLk6GJQsqaUBKTNV-1" source="WIvtLKS5KJyySkYE0_6_-8" target="WIvtLKS5KJyySkYE0_6_-15">
          <mxGeometry relative="1" as="geometry" />
        </mxCell>
        <mxCell id="WIvtLKS5KJyySkYE0_6_-43" value="1" style="text;html=1;align=center;verticalAlign=middle;whiteSpace=wrap;rounded=0;" vertex="1" parent="WIyWlLk6GJQsqaUBKTNV-1">
          <mxGeometry x="479" y="342" width="60" height="30" as="geometry" />
        </mxCell>
        <mxCell id="WIvtLKS5KJyySkYE0_6_-44" value="0..*" style="text;html=1;align=center;verticalAlign=middle;whiteSpace=wrap;rounded=0;" vertex="1" parent="WIyWlLk6GJQsqaUBKTNV-1">
          <mxGeometry x="604" y="205" width="60" height="30" as="geometry" />
        </mxCell>
        <mxCell id="WIvtLKS5KJyySkYE0_6_-46" value="1" style="text;html=1;align=center;verticalAlign=middle;whiteSpace=wrap;rounded=0;" vertex="1" parent="WIyWlLk6GJQsqaUBKTNV-1">
          <mxGeometry x="277" y="103" width="60" height="30" as="geometry" />
        </mxCell>
        <mxCell id="WIvtLKS5KJyySkYE0_6_-47" value="1" style="text;html=1;align=center;verticalAlign=middle;whiteSpace=wrap;rounded=0;" vertex="1" parent="WIyWlLk6GJQsqaUBKTNV-1">
          <mxGeometry x="365" y="249" width="60" height="30" as="geometry" />
        </mxCell>
        <mxCell id="WIvtLKS5KJyySkYE0_6_-48" value="1" style="text;html=1;align=center;verticalAlign=middle;whiteSpace=wrap;rounded=0;" vertex="1" parent="WIyWlLk6GJQsqaUBKTNV-1">
          <mxGeometry x="488" y="-31" width="60" height="30" as="geometry" />
        </mxCell>
        <mxCell id="WIvtLKS5KJyySkYE0_6_-49" value="0..*" style="text;html=1;align=center;verticalAlign=middle;whiteSpace=wrap;rounded=0;" vertex="1" parent="WIyWlLk6GJQsqaUBKTNV-1">
          <mxGeometry x="703" y="23" width="60" height="30" as="geometry" />
        </mxCell>
        <mxCell id="WIvtLKS5KJyySkYE0_6_-50" value="1..*" style="text;html=1;align=center;verticalAlign=middle;whiteSpace=wrap;rounded=0;" vertex="1" parent="WIyWlLk6GJQsqaUBKTNV-1">
          <mxGeometry x="44" y="265" width="60" height="30" as="geometry" />
        </mxCell>
        <mxCell id="WIvtLKS5KJyySkYE0_6_-51" value="0..*" style="text;html=1;align=center;verticalAlign=middle;whiteSpace=wrap;rounded=0;" vertex="1" parent="WIyWlLk6GJQsqaUBKTNV-1">
          <mxGeometry x="39" y="153" width="60" height="30" as="geometry" />
        </mxCell>
        <mxCell id="WIvtLKS5KJyySkYE0_6_-52" style="edgeStyle=orthogonalEdgeStyle;rounded=0;orthogonalLoop=1;jettySize=auto;html=1;" edge="1" parent="WIyWlLk6GJQsqaUBKTNV-1" source="WIvtLKS5KJyySkYE0_6_-5" target="WIvtLKS5KJyySkYE0_6_-9">
          <mxGeometry relative="1" as="geometry" />
        </mxCell>
        <mxCell id="WIvtLKS5KJyySkYE0_6_-53" value="1" style="text;html=1;align=center;verticalAlign=middle;whiteSpace=wrap;rounded=0;" vertex="1" parent="WIyWlLk6GJQsqaUBKTNV-1">
          <mxGeometry x="290" y="340" width="60" height="30" as="geometry" />
        </mxCell>
        <mxCell id="WIvtLKS5KJyySkYE0_6_-54" value="0..*" style="text;html=1;align=center;verticalAlign=middle;whiteSpace=wrap;rounded=0;" vertex="1" parent="WIyWlLk6GJQsqaUBKTNV-1">
          <mxGeometry x="176" y="319" width="60" height="30" as="geometry" />
        </mxCell>
      </root>
    </mxGraphModel>
  </diagram>
</mxfile>
